/* XPM */
static char *c9153927d99541c5d97f9e54a3fed1aa[] = {
/* columns rows colors chars-per-pixel */
"128 128 45 1 ",
"  c #B95F3C",
". c #BB6544",
"X c #BD6847",
"o c #BE6B4B",
"O c #C06F4F",
"+ c #C06F50",
"@ c #C27455",
"# c #C37658",
"$ c #C47A5D",
"% c #C67D61",
"& c #C78165",
"* c #C88266",
"= c #C9856B",
"- c #CB886F",
"; c #CD8D74",
": c #CF9179",
"> c #D0947D",
", c #D19781",
"< c #D39B85",
"1 c #D49E89",
"2 c #D5A18C",
"3 c #D7A491",
"4 c #D8A793",
"5 c #D9A996",
"6 c #DBAD9B",
"7 c #DCB09F",
"8 c #DDB3A3",
"9 c #DFB7A8",
"0 c #DFB8A9",
"q c #E1BBAC",
"w c #E2BEB1",
"e c #E4C2B5",
"r c #E5C6B9",
"t c #E7C9BD",
"y c #E8CABF",
"u c #E7CBC0",
"i c #E9CDC3",
"p c #EAD1C7",
"a c #ECD4CB",
"s c #EDD8CF",
"d c #EFDAD2",
"f c #F0DDD6",
"g c #F1DFD9",
"h c #F2E2DB",
"j c None",
/* pixels */
"jjjjjjjjjjjjjjjjjjjjjjjjjjjjjjjjjjjjjjjjjjjjjjjjjjjjjjjjjjjjjjjjjjjjjjjjjjjjjjjjjjjjjjjjjjjjjjjjjjjjjjjjjjjjjjjjjjjjjjjjjjjjjjjj",
"jjjjjjjjjjjjjjjjjjjjjjjjjjjjjjjjjjjjjjjjjjjjjjjjjjjjjjjjjjjjjjjjjjjjjjjjjjjjjjjjjjjjjjjjjjjjjjjjjjjjjjjjjjjjjjjjjjjjjjjjjjjjjjjj",
"jjjjjjjjjjjjjjjjjjjjjjjjjjjjjjjjjjjjjjjjjjjjjjjjjjjjjjjjjjjjjjjjjjjjjjjjjjjjjjjjjjjjjjjjjjjjjjjjjjjjjjjjjjjjjjjjjjjjjjjjjjjjjjjj",
"jjjjjjjjjjjjjjjjjjjjjjjjjjjjjjjjjjjjjjjjjjjjjjjjjjjjjjjjjjjjjjjjjjjjjjjjjjjjjjjjjjjjjjjjjjjjjjjjjjjjjjjjjjjjjjjjjjjjjjjjjjjjjjjj",
"jjjjjjjjjjjjjjjjjjjjjjjjjjjjjjjjjjjjjjjjjjjjjjjjjjjjjjjjjjjjjjjjjjjjjjjjjjjjjjjjjjjjjjjjjjjjjjjjjjjjjjjjjjjjjjjjjjjjjjjjjjjjjjjj",
"jjjjjjjjjjjjjjjjjjjjjjjjjjjjjjjjjjjjjjjjjjjjjjjjjjjjjjjjjjjjjjjjjjjjjjjjjjjjjjjjjjjjjjjjjjjjjjjjjjjjjjjjjjjjjjjjjjjjjjjjjjjjjjjj",
"jjjjjjjjjjjjjjjjjjjjjjjjjjjjjjjjjjjjjjjjjjjjjjjjjjjjjjjjjjjjjjjjjjjjjjjjjjjjjjjjjjjjjjjjjjjjjjjjjjjjjjjjjjjjjjjjjjjjjjjjjjjjjjjj",
"jjjjjjjjjjjjjjjjjjjjjjjjjjjjjjjjjjjjjjjjjjjjjjjjjjjjjjjjjjjjjjjjjjjjjjjjjjjjjjjjjjjjjjjjjjjjjjjjjjjjjjjjjjjjjjjjjjjjjjjjjjjjjjjj",
"jjjjjjjjjjjjjjjjjjjjjjjjjjjjjjjjjjjjjjjjjjjjjjjjjjjjjjjjjjjjjjjjjjjjjjjjjjjjjjjjjjjjjjjjjjjjjjjjjjjjjjjjjjjjjjjjjjjjjjjjjjjjjjjj",
"jjjjjjjjjjjjjjjjjjjjjjjjjjjjjjjjjjjjjjjjjjjjjjjjjjjjjjjjjjjjjjjjjjjjjjjjjjjjjjjjjjjjjjjjjjjjjjjjjjjjjjjjjjjjjjjjjjjjjjjjjjjjjjjj",
"jjjjjjjjjjjjjjjjjjjjjjjjjjjjjjjjjjjjjjjjjjjjjjjjjjjjjjjjjjjjjjjjjjjjjjjjjjjjjjjjjjjjjjjjjjjjjjjjjjjjjjjjjjjjjjjjjjjjjjjjjjjjjjjj",
"jjjjjjjjjjjjjjjjjjjjjjjjjjjjjjjjjjjjjjjjjjjjjjjjjjjjjjjjjjjjjjjjjjjjjjjjjjjjjjjjjjjjjjjjjjjjjjjjjjjjjjjjjjjjjjjjjjjjjjjjjjjjjjjj",
"jjjjjjjjjjjjjjjjjjjjjjjjjjjjjjjjjjjjjjjjjjjjjjjjjjjjjjjjjjjjjjjjjjjjjjjjjjjjjjjjjjjjjjjjjjjjjjjjjjjjjjjjjjjjjjjjjjjjjjjjjjjjjjjj",
"jjjjjjjjjjjjjjjjjjjjjjjjjjjjjjjjjjjjjjjjjjjjjjjjjjjjjjjjjjjjjjjjjjjjjjjjjjjjjjjjjjjjjjjjjjjjjjjjjjjjjjjjjjjjjjjjjjjjjjjjjjjjjjjj",
"jjjjjjjjjjjjjjjjjjjjjjjjjjjjjjjjjjjjjjjjjjjjjjjjjjjjjjjjjjjjjjjjjjjjjjjjjjjjjjjjjjjjjjjjjjjjjjjjjjjjjjjjjjjjjjjjjjjjjjjjjjjjjjjj",
"jjjjjjjjjjjjjjjjjjjjjjjjjjjjjjjjjjjjjjjjjjjjjjjjjjjjjjjjjjjjjjjjjjjjjjjjjjjjjjjjjjjjjjjjjjjjjjjjjjjjjjjjjjjjjjjjjjjjjjjjjjjjjjjj",
"jjjjjjjjjjjjjjjjjjjjjjjjjjjjjjjjjjjjjjjjjjjjjjjjjjjjjjjjjjjjjjjjjjjjjjjjjjjjjjjjjjjjjjjjjjjjjjjjjjjjjjjjjjjjjjjjjjjjjjjjjjjjjjjj",
"jjjjjjjjjjjjjjjjjjjjjjjjjjjjjjjjjjjjjjjjjjjjjjjjjjjjjjjjjjjjjjjjjjjjjjjjjjjjjjjjjjjjjjjjjjjjjjjjjjjjjjjjjjjjjjjjjjjjjjjjjjjjjjjj",
"jjjjjjjjjjjjjjjjjjjjjjjjjjjjjjjjjjjjjjjjjjjjjjjjjjjjjjjjjjjjjjjjjjjjjjjjjjjjjjjjjjjjjjjjjjjjjjjjjjjjjjjjjjjjjjjjjjjjjjjjjjjjjjjj",
"jjjjjjjjjjjjjjjjjjjjjjjjjjjjjjjjjjjjjjjjjjjjjjjjjjjjjjjjjjjjjjjjjjjjjjjjjjjjjjjjjjjjjjjjjjjjjjjjjjjjjjjjjjjjjjjjjjjjjjjjjjjjjjjj",
"jjjjjjjjjjjjjjjjjjjjjjjjjjjjjjjjjjjjjjjjjjjjjjjjjjjjjjjjjjjjjjjjjjjjjjjjjjjjjjjjjjjjjjjjjjjjjjjjjjjjjjjjjjjjjjjjjjjjjjjjjjjjjjjj",
"jjjjjjjjjjjjjjjjjjjjjjjjjjjjjjjjjjjjjjjjjjjjjjjjjjjjjjjjjjjjjjjjjjjjjjjjjjjjjjjjjjjjjjjjjjjjjjjjjjjjjjjjjjjjjjjjjjjjjjjjjjjjjjjj",
"jjjjjjjjjjjjjjjjjjjjjjjjjjjjjjjjjjjjjjjjjjjjjjjjjjjjjjjjjjjjjjjjjjjjjjjjjjjjjjjjjjjjjjjjjjjjjjjjjjjjjjjjjjjjjjjjjjjjjjjjjjjjjjjj",
"jjjjjjjjjjjjjjjjjjjjjjjjjjjjjjjjjjjjjjjjjjjjjjjjjjjjjjjjjjjjjjjjjjjjjjjjjjjjjjjjjjjjjjjjjjjjjjjjjjjjjjjjjjjjjjjjjjjjjjjjjjjjjjjj",
"jjjjjjjjjjjjjjjjjjjjjjjjjjjjjjjjjjjjjjjjjjjjjjjjjjjjjjjjjjjjjjjjjjjjjjjjjjjjjjjjjjjjjjjjjjjjjjjjjjjjjjjjjjjjjjjjjjjjjjjjjjjjjjjj",
"jjjjjjjjjjjjjjjjjjjjjjjjjjjjjjjjjjjjjjjjjjjjjjjjjjjjjjjjjjjjjjjjjjjjjjjjjjjjjjjjjjjjjjjjjjjjjjjjjjjjjjjjjjjjjjjjjjjjjjjjjjjjjjjj",
"jjjjjjjjjjjjjjjjjjjjjjjjjjjjjjjjjjjjjjjjjjjjjjjjjjjjjjjjjjjjjjjjjjjjjjjjjjjjjjjjjjjjjjjjjjjjjjjjjjjjjjjjjjjjjjjjjjjjjjjjjjjjjjjj",
"jjjjjjjjjjjjjjjjjjjjjjjjjjjjjjjjjjjjjjjjjjjjjjjjjjjjjjjjjjjjjjjjjjjjjjjjjjjjjjjjjjjjjjjjjjjjjjjjjjjjjjjjjjjjjjjjjjjjjjjjjjjjjjjj",
"jjjjjjjjjjjjjjjjjjjjjjjjjjjjjjjjjjjjjjjjjjjjjjjjjjjjjjjjjjjjjjjjjjjjjjjjjjjjjjjjjjjjjjjjjjjjjjjjjjjjjjjjjjjjjjjjjjjjjjjjjjjjjjjj",
"jjjjjjjjjjjjjjjjjjjjjjjjjjjjar86458rajjjjjjjjjjjjjjjjjjjjjjjjjjjjjjjjjjjjjjjjjjjjjjjjjjjjjjjjjpr8760rpjjjjjjjjjjjjjjjjjjjjjjjjjj",
"jjjjjjjjjjjjjjjjjjjjjjjj8*XXooOo++ooXX.$,ejjjjjjjjjjjjjjjjjjjjjjjjjjjjjjjjjjjjjjjjjjjjjjjd4#.Xooo+oOooXX+<ijjjjjjjjjjjjjjjjjjjjj",
"jjjjjjjjjjjjjjjjjjjjjq#Xo@#############@+o.#8jjjjjjjjjjjjjjjjjjjjjjjjjjjjjjjjjjjjjjjjjf>XXO@@#########@@#+XX=pjjjjjjjjjjjjjjjjjj",
"jjjjjjjjjjjjjjjjjjj<.o@####################@oX<jjjjjjjjjjjjjjjjjjjjjjjjjjjjjjjjjjjjjt$X+####################@X+wjjjjjjjjjjjjjjjj",
"jjjjjjjjjjjjjjjjj2.+##########################O.6jjjjjjjjjjjjjjjjjjjjjjjjjjjjjjjjjd@X@#########################Xopjjjjjjjjjjjjjj",
"jjjjjjjjjjjjjjjpoo#############################@oodjjjjjjjjjjjjjjjjjjjjjjjjjjjjjj>.@############################@X=jjjjjjjjjjjjj",
"jjjjjjjjjjjjjj<.@################################@.1jjjjjjjjjjjjjjjjjjjjjjjjjjjhoO################################+.ujjjjjjjjjjj",
"jjjjjjjjjjjjj#o###################################@o%jjjjjjjjjjjjjjjjjjjjjjjjje.@##################################@X2jjjjjjjjjj",
"jjjjjjjjjjjjo@######################################@Xjjjjjjjjjjjjjjjjjjjjjjj4.@#####################################X;jjjjjjjjj",
"jjjjjjjjjjjX@##############@+ooXXXoo+@###############@.ajjjjjjjjjjjjjjjjjjjj2X@##############+OooXXXoo+###############o=jjjjjjjj",
"jjjjjjjjjjo@############@oX@<qufffaq3$Xo@#############@.pjjjjjjjjjjjjjjjjjj5X#############+XX;8rdffdr8>XX+#############O;jjjjjjj",
"jjjjjjjjj#+###########@X@8jjjjjjjjjjjjj8+o@############@ pjjjjjjjjjjjjjjjjeX@###########+X<ajjjjjjjjjjjjs3Xo@###########X4jjjjjj",
"jjjjjjjj,+###########o#yjjjjjjjjjjjjjjjjjqoo#############.djjjjjjjjjjjjjjj ###########@.2jjjjjjjjjjjjjjjjjj8X+##########@Xyjjjjj",
"jjjjjjjt.##########@.8jjjjjjjjjjjjjjjjjjjjj2.@###########@.jjjjjjjjjjjjjj@@##########X&jjjjjjjjjjjjjjjjjjjjjj:X@##########Xjjjjj",
"jjjjjjjX##########++jjjjjjjjjjjjjjjjjjjjjjjjj@o###########@Xjjjjjjjjjjjj2o#########@X5jjjjjjjjjjjjjjjjjjjjjjjjeX##########+=jjjj",
"jjjjjj,+#########+%jjjjjjjjjjjjjjjjjjjjjjjjjjj:X@##########@@jjjjjjjjjjj.@########@.tjjjjjjjjjjjjjjjjjjjjjjjjjjh.@########@Xijjj",
"jjjjjj.@########+%jjjjjjjjjjjjjjjjjjjjjjjjjjjjj8.@##########o:jjjjjjjjj=@########@.ajjjjjjjjjjjjjjjjjjjjjjjjjjjjj.oooooooooX=jjj",
"jjjjj;+########@@jjjjjjjjjjjjjjjjjjjjjjjjjjjjjjja.###########XqjjjjjjjhX@#######@X0jjjjjjjjjjjjjjjjjjjjjjjjjjjjjjjreereereewjjjj",
"jjjjjX########@.jjjjjjjjjjjjjjjjjjjjjjjjjjjjjjjjjd.@#########@.jjjjjjj;+########+>jjjjjjjjjjjjjjjjjjjjjjjjjjjjjjjjjjjjjjjjjjjjjj",
"jjjj4+########Xejjjjjjjjjjjjjjjjjjjjjjjjjjjjjjjjjjf.@#########@@jjjjjj.@#######@ojjjjjjjjjjjjjjjjjjjjjjjjjjjjjjjjjjjjjjjjjjjjjjj",
"jjjjo########@$jjjjjjjjjjjjjjjjjjjjjjjjjjjjjjjjjjjji.@#########o2jjjj8o########Xijjjjjjjjjjjjjjjjjjjjjjjjjjjjjjjjjjjjjjjjjjjjjjj",
"jjjdX########XajjjjjjjjjjjjjjjjjjjjjjjjjjjjjjjjjjjjjqX#########@.hjjj1O#######@%jjjjjjjjjjjjjjjjjjjjjjjjjjjjjjjjjjjjjjjjjjjjjjjj",
"jjj6o#######@$jjjjjjjjjjjjjjjjjjjjjjjjjjjjjjjjjjjjjjj>o#########@+jjjjX@######Xtjjjjjjjjjjjjjjjjjjjjjjjjjjjjjjjjjjjjjjjjjjjjjjjj",
"jjj$@#######Oqjjjjjjjjjjjjjjjjjjjjjjjjjjjjjjjjjjjjjjjj#@########@o3jjjqX#####@ojjjjjjjjjjjjjjjjjjjjjjjjjjjjjjjjjjjjjjjjjjjjjjjjj",
"jjjX########XjjjjjjjjjjjjjjjjjjjjjjjjjjjjjjjjjjjjjjjjjjX##########.jjjj@@####@1jjjjjjjjjjjjjjjjjjjjjjjjjjjjjjjjjjjjjjjjjjjjjjjjj",
"jjjX######@@%jjjjjjjjjjjjjjjjjjjjjjjjjjjjjjjjjjjjjjjjjjrX#########@&jjjaX@###otjjjjjjjjjjjjjjjjjjjjjjjjjjjjjjjjjjjjjjjjjjjjjjjjj",
"jjuo#######+2jjjjjjjjjjjjjjjjjjjjjjjjjjjjjjjjjjjjjjjjjjj-+########@Xrjjj;+##@Xjjjjjjjjjjjjjjjjjjjjjjjjjjjjjjjjjjjjjjjjjjjjjjjjjj",
"jj8+#######owjjjjjjjjjjjjjjjjjjjjjjjjjjjjjjjjjjjjjjjjjjjjX@########@XjjjjX@##Xjjjjjjjjjjjjjjjjjjjjjjjjjjjjjjjjjjjjjjjjjjjjjjjjjj",
"jj6+#######XajjjjjjjjjjjjjjjjjjjjjjjjjjjjjjjjjjjjjjjjijjjwX#########+2jjjtX#@%jjjjjjjjjjjjjjjjjjjjjjjjjjjjjjjjjjjjjjjjjjjjjjjjjj",
"jj1+#######Xhjjjjjjjjjjjjjjjjjjjjjjjjjjjjjjjjjjjjjjjj jjjj%@########@.jjjj;+@=jjjjjjjjjjjjjjjjjjjjjjjjjjjjjjjjjjjjjjjjjjjjjjjjjj",
"jj<+######$Xhjjjjjjjjjjjjjjjjjjjjjjjjjjjjjjjjjjjjjjjj.2jjjj.#########@$jjjj++;jjjjjjjjjjjjjjjjjjjjjjjjjjjjjjjjjjjjjjjjjjjjjjjjjj",
"jj2+#######XhjjjjjjjjjjjjjjjjjjjjjjjjjjjjjjjjjjjjjjjjX.fjjj<o#########X8jjjh *jjjjjjjjjjjjjjjjjjjjjjjjjjjjjjjjjjjjjjjjjjjjjjjjjj",
"jj6+#######opjjjjjjjjjjjjjjjjjjjjjjjjjjjjjjjjjjjjjjjjX@@jjjjX##########.jjjjqXjjjjjjjjjjjjjjjjjjjjjjjjjjjjjjjjjjjjjjjjjjjjjjjjjj",
"jjwO#######OqjjjjjjjjjjjjjjjjjjjjjjjjjjjjjjjjjjjjjjjfX#o5jjjtX#########@$jjjj;jjjjjjjjjjjjjjjjjjjjjjjjjjjjjjjjjjjjjjjjjjjjjjjjjj",
"jjaX#######+1jjjjjjjjjjjjjjjjjjjjjjjjjjjjjjjjjjjjjjjwo##.jjjj*+#########o4jjjjjjjjjjjjjjjjjjjjjjjjjjjjjjjjjjjjjjjjjjjjjjjjjjjjjj",
"jjjX#######@@jjjjjjjjjjjjjjjjjjjjjjjjjjjjjjjjjjjjjjj>@##@$jjjjX@#########.ajjjjjjjjjjjjjjjjjjjjjjjjjjjjjjjjjjjjjjjjjjjjjjjjjjjjj",
"jjjo@#######XjjjjjjjjjjjjjjjjjjjjjjjjjjjjjjjjjjjjjjjX@###XqjjjqX#########@Xjjjjjjjjjjjjjjjjjjjjjjjjjjjjjjjjjjjjjjjjjjjjjjjjjjjjj",
"jjj-@#######O6jjjjjjjjjjjjjjjjjjjjjjjjjjjjjjjjjjjjjaX$####.jjjj=@#########@@jjjjjjjjjjjjjjjjjjjjjjjjjjjjjjjjjjjjjjjjjjjjjjjjjjjj",
"jjj0o########ojjjjjjjjjjjjjjjjjjjjjjjjjjjjjjjjjjjjj;@#####+=jjjjX@#########O-jjjjjjjjjjjjjjjjjjjjjjjjjjjjjjjjjjjjjjjjjjjjjjjjjjj",
"jjjj.########oejjjjjjjjjjjjjjjjjjjjjjjjjjjjjjjjjjjj.#######.jjjja.@#########o2jjjjjjjjjjjjjjjjjjjjjjjjjjjjjjjjjjjjjjjjjjjjjjjjjj",
"jjjj#@#######@ojjjjjjjjjjjjjjjjjjjjjjjjjjjjjjjjjjj-+#######oejjjj2o#########@X8jjjjjjjjjjjjjjjjjjjjjjjjjjjjjjjjjjjjjjjjjjjjjjjjj",
"jjjjeo########o1jjjjjjjjjjjjjjjjjjjjjjjjjjjjjjjjjtX########oejjjjj%@#########@.qjjjjjjjjjjjjjjjjjjjjjjjjjjjjjjjjjjjjjjjjjjjjjjjj",
"jjjjjX@########XajjjjjjjjjjjjjjjjjjjjjjjjjjjjjjjjX@########.hjjjjjjX@#########@.6jjjjjjjjjjjjjjjjjjjjjjjjjjjjjjjjjjjjjjjjjjjjjjj",
"jjjjj5o########@Xjjjjjjjjjjjjjjjjjjjjjjjjjjjjjjj@@########@#jjjjjjjj.@##########X4jjjjjjjjjjjjjjjjjjjjjjjjjjjjjjjr$@#@#@#@@+9jjj",
"jjjjjjX##########Xjjjjjjjjjjjjjjjjjjjjjjjjjjjjj%+#########Xfjjjjjjjju.###########X;jjjjjjjjjjjjjjjjjjjjjjjjjjjjj6.@@@@@@@#@o;jjj",
"jjjjjjqo#########@ojjjjjjjjjjjjjjjjjjjjjjjjjjj$+#########+=jjjjjjjjjj6X@##########@#jjjjjjjjjjjjjjjjjjjjjjjjjjj1X#########@Xjjjj",
"jjjjjjj$+#########@.rjjjjjjjjjjjjjjjjjjjjjjjho+#########@Xjjjjjjjjjjjj1X##########@@.wjjjjjjjjjjjjjjjjjjjjjjjj&o##########X9jjjj",
"jjjjjjjj.@##########X:jjjjjjjjjjjjjjjjjjjjj4.@##########Xejjjjjjjjjjjjj:o############X*jjjjjjjjjjjjjjjjjjjjjwX@##########+&jjjjj",
"jjjjjjjjeX###########+X5jjjjjjjjjjjjjjjjj0oo@##########+;jjjjjjjjjjjjjjj;o############+X>hjjjjjjjjjjjjjjjji#X@###########Xjjjjjj",
"jjjjjjjjj<o###########@+.:ujjjjjjjjjjja1.o@###########+#jjjjjjjjjjjjjjjjj:o@###########@+X%qhjjjjjjjjjjf5oX@############.hjjjjjj",
"jjjjjjjjjj;o#############@XX+:5eee8<$Xo+@############+@jjjjjjjjjjjjjjjjjjj<X#############@@OXX+:<431>$XXO@############@.ujjjjjjj",
"jjjjjjjjjjj-o@##############@+@oXoO+################+ojjjjjjjjjjjjjjjjjjjjj8.@################@++++++@###############@.tjjjjjjjj",
"jjjjjjjjjjjj>X################@###################@+#jjjjjjjjjjjjjjjjjjjjjjja.@#####################################@Xijjjjjjjjj",
"jjjjjjjjjjjjj6.@################################@#X-jjjjjjjjjjjjjjjjjjjjjjjjjj+o###################################+Xjjjjjjjjjjj",
"jjjjjjjjjjjjjjdo+@#############################@@.0jjjjjjjjjjjjjjjjjjjjjjjjjjjj<.@###############################@X=jjjjjjjjjjjj",
"jjjjjjjjjjjjjjjj:.+###########################@X#jjjjjjjjjjjjjjjjjjjjjjjjjjjjjjjh+o############################@OXyjjjjjjjjjjjjj",
"jjjjjjjjjjjjjjjjjj$X@@#####@################@ooyjjjjjjjjjjjjjjjjjjjjjjjjjjjjjjjjjjwXo@@######################@O.5jjjjjjjjjjjjjjj",
"jjjjjjjjjjjjjjjjjjjd=XO@###@############@@+X@rjjjjjjjjjjjjjjjjjjjjjjjjjjjjjjjjjjjjjjq+X@@################@@@XX6jjjjjjjjjjjjjjjjj",
"jjjjjjjjjjjjjjjjjjjjjj8#Xo@@#########@+oXX2djjjjjjjjjjjjjjjjjjjjjjjjjjjjjjjjjjjjjjjjjjd6@XXO+@#########+OXX-pjjjjjjjjjjjjjjjjjjj",
"jjjjjjjjjjjjjjjjjjjjjjjjjr1$XXXXoXXXX#,qhjjjjjjjjjjjjjjjjjjjjjjjjjjjjjjjjjjjjjjjjjjjjjjjjja7;@.XXoXXXX+:7ajjjjjjjjjjjjjjjjjjjjjj",
"jjjjjjjjjjjjjjjjjjjjjjjjjjjjjjjjdhjjjjjjjjjjjjjjjjjjjjjjjjjjjjjjjjjjjjjjjjjjjjjjjjjjjjjjjjjjjjjjjgdjjjjjjjjjjjjjjjjjjjjjjjjjjjjj",
"jjjjjjjjjjjjjjjjjjjjjjjjjjjjjjjjjjjjjjjjjjjjjjjjjjjjjjjjjjjjjjjjjjjjjjjjjjjjjjjjjjjjjjjjjjjjjjjjjjjjjjjjjjjjjjjjjjjjjjjjjjjjjjjj",
"jjjjjjjjjjjjjjjjjjjjjjjjjjjjjjjjjjjjjjjjjjjjjjjjjjjjjjjjjjjjjjjjjjjjjjjjjjjjjjjjjjjjjjjjjjjjjjjjjjjjjjjjjjjjjjjjjjjjjjjjjjjjjjjj",
"jjjjjjjjjjjjjjjjjjjjjjjjjjjjjjjjjjjjjjjjjjjjjjjjjjjjjjjjjjjjjjjjjjjjjjjjjjjjjjjjjjjjjjjjjjjjjjjjjjjjjjjjjjjjjjjjjjjjjjjjjjjjjjjj",
"jjjjjjjjjjjjjjjjjjjjjjjjjjjjjjjjjjjjjjjjjjjjjjjjjjjjjjjjjjjjjjjjjjjjjjjjjjjjjjjjjjjjjjjjjjjjjjjjjjjjjjjjjjjjjjjjjjjjjjjjjjjjjjjj",
"jjjjjjjjjjjjjjjjjjjjjjjjjjjjjjjjjjjjjjjjjjjjjjjjjjjjjjjjjjjjjjjjjjjjjjjjjjjjjjjjjjjjjjjjjjjjjjjjjjjjjjjjjjjjjjjjjjjjjjjjjjjjjjjj",
"jjjjjjjjjjjjjjjjjjjjjjjjjjjjjjjjjjjjjjjjjjjjjjjjjjjjjjjjjjjjjjjjjjjjjjjjjjjjjjjjjjjjjjjjjjjjjjjjjjjjjjjjjjjjjjjjjjjjjjjjjjjjjjjj",
"jjjjjjjjjjjjjjjjjjjjjjjjjjjjjjjjjjjjjjjjjjjjjjjjjjjjjjjjjjjjjjjjjjjjjjjjjjjjjjjjjjjjjjjjjjjjjjjjjjjjjjjjjjjjjjjjjjjjjjjjjjjjjjjj",
"jjjjjjjjjjjjjjjjjjjjjjjjjjjjjjjjjjjjjjjjjjjjjjjjjjjjjjjjjjjjjjjjjjjjjjjjjjjjjjjjjjjjjjjjjjjjjjjjjjjjjjjjjjjjjjjjjjjjjjjjjjjjjjjj",
"jjjjjjjjjjjjjjjjjjjjjjjjjjjjjjjjjjjjjjjjjjjjjjjjjjjjjjjjjjjjjjjjjjjjjjjjjjjjjjjjjjjjjjjjjjjjjjjjjjjjjjjjjjjjjjjjjjjjjjjjjjjjjjjj",
"jjjjjjjjjjjjjjjjjjjjjjjjjjjjjjjjjjjjjjjjjjjjjjjjjjjjjjjjjjjjjjjjjjjjjjjjjjjjjjjjjjjjjjjjjjjjjjjjjjjjjjjjjjjjjjjjjjjjjjjjjjjjjjjj",
"jjjjjjjjjjjjjjjjjjjjjjjjjjjjjjjjjjjjjjjjjjjjjjjjjjjjjjjjjjjjjjjjjjjjjjjjjjjjjjjjjjjjjjjjjjjjjjjjjjjjjjjjjjjjjjjjjjjjjjjjjjjjjjjj",
"jjjjjjjjjjjjjjjjjjjjjjjjjjjjjjjjjjjjjjjjjjjjjjjjjjjjjjjjjjjjjjjjjjjjjjjjjjjjjjjjjjjjjjjjjjjjjjjjjjjjjjjjjjjjjjjjjjjjjjjjjjjjjjjj",
"jjjjjjjjjjjjjjjjjjjjjjjjjjjjjjjjjjjjjjjjjjjjjjjjjjjjjjjjjjjjjjjjjjjjjjjjjjjjjjjjjjjjjjjjjjjjjjjjjjjjjjjjjjjjjjjjjjjjjjjjjjjjjjjj",
"jjjjjjjjjjjjjjjjjjjjjjjjjjjjjjjjjjjjjjjjjjjjjjjjjjjjjjjjjjjjjjjjjjjjjjjjjjjjjjjjjjjjjjjjjjjjjjjjjjjjjjjjjjjjjjjjjjjjjjjjjjjjjjjj",
"jjjjjjjjjjjjjjjjjjjjjjjjjjjjjjjjjjjjjjjjjjjjjjjjjjjjjjjjjjjjjjjjjjjjjjjjjjjjjjjjjjjjjjjjjjjjjjjjjjjjjjjjjjjjjjjjjjjjjjjjjjjjjjjj",
"jjjjjjjjjjjjjjjjjjjjjjjjjjjjjjjjjjjjjjjjjjjjjjjjjjjjjjjjjjjjjjjjjjjjjjjjjjjjjjjjjjjjjjjjjjjjjjjjjjjjjjjjjjjjjjjjjjjjjjjjjjjjjjjj",
"jjjjjjjjjjjjjjjjjjjjjjjjjjjjjjjjjjjjjjjjjjjjjjjjjjjjjjjjjjjjjjjjjjjjjjjjjjjjjjjjjjjjjjjjjjjjjjjjjjjjjjjjjjjjjjjjjjjjjjjjjjjjjjjj",
"jjjjjjjjjjjjjjjjjjjjjjjjjjjjjjjjjjjjjjjjjjjjjjjjjjjjjjjjjjjjjjjjjjjjjjjjjjjjjjjjjjjjjjjjjjjjjjjjjjjjjjjjjjjjjjjjjjjjjjjjjjjjjjjj",
"jjjjjjjjjjjjjjjjjjjjjjjjjjjjjjjjjjjjjjjjjjjjjjjjjjjjjjjjjjjjjjjjjjjjjjjjjjjjjjjjjjjjjjjjjjjjjjjjjjjjjjjjjjjjjjjjjjjjjjjjjjjjjjjj",
"jjjjjjjjjjjjjjjjjjjjjjjjjjjjjjjjjjjjjjjjjjjjjjjjjjjjjjjjjjjjjjjjjjjjjjjjjjjjjjjjjjjjjjjjjjjjjjjjjjjjjjjjjjjjjjjjjjjjjjjjjjjjjjjj",
"jjjjjjjjjjjjjjjjjjjjjjjjjjjjjjjjjjjjjjjjjjjjjjjjjjjjjjjjjjjjjjjjjjjjjjjjjjjjjjjjjjjjjjjjjjjjjjjjjjjjjjjjjjjjjjjjjjjjjjjjjjjjjjjj",
"jjjjjjjjjjjjjjjjjjjjjjjjjjjjjjjjjjjjjjjjjjjjjjjjjjjjjjjjjjjjjjjjjjjjjjjjjjjjjjjjjjjjjjjjjjjjjjjjjjjjjjjjjjjjjjjjjjjjjjjjjjjjjjjj",
"jjjjjjjjjjjjjjjjjjjjjjjjjjjjjjjjjjjjjjjjjjjjjjjjjjjjjjjjjjjjjjjjjjjjjjjjjjjjjjjjjjjjjjjjjjjjjjjjjjjjjjjjjjjjjjjjjjjjjjjjjjjjjjjj",
"jjjjjjjjjjjjjjjjjjjjjjjjjjjjjjjjjjjjjjjjjjjjjjjjjjjjjjjjjjjjjjjjjjjjjjjjjjjjjjjjjjjjjjjjjjjjjjjjjjjjjjjjjjjjjjjjjjjjjjjjjjjjjjjj",
"jjjjjjjjjjjjjjjjjjjjjjjjjjjjjjjjjjjjjjjjjjjjjjjjjjjjjjjjjjjjjjjjjjjjjjjjjjjjjjjjjjjjjjjjjjjjjjjjjjjjjjjjjjjjjjjjjjjjjjjjjjjjjjjj",
"jjjjjjjjjjjjjjjjjjjjjjjjjjjjjjjjjjjjjjjjjjjjjjjjjjjjjjjjjjjjjjjjjjjjjjjjjjjjjjjjjjjjjjjjjjjjjjjjjjjjjjjjjjjjjjjjjjjjjjjjjjjjjjjj",
"jjjjjjjjjjjjjjjjjjjjjjjjjjjjjjjjjjjjjjjjjjjjjjjjjjjjjjjjjjjjjjjjjjjjjjjjjjjjjjjjjjjjjjjjjjjjjjjjjjjjjjjjjjjjjjjjjjjjjjjjjjjjjjjj",
"jjjjjjjjjjjjjjjjjjjjjjjjjjjjjjjjjjjjjjjjjjjjjjjjjjjjjjjjjjjjjjjjjjjjjjjjjjjjjjjjjjjjjjjjjjjjjjjjjjjjjjjjjjjjjjjjjjjjjjjjjjjjjjjj",
"jjjjjjjjjjjjjjjjjjjjjjjjjjjjjjjjjjjjjjjjjjjjjjjjjjjjjjjjjjjjjjjjjjjjjjjjjjjjjjjjjjjjjjjjjjjjjjjjjjjjjjjjjjjjjjjjjjjjjjjjjjjjjjjj",
"jjjjjjjjjjjjjjjjjjjjjjjjjjjjjjjjjjjjjjjjjjjjjjjjjjjjjjjjjjjjjjjjjjjjjjjjjjjjjjjjjjjjjjjjjjjjjjjjjjjjjjjjjjjjjjjjjjjjjjjjjjjjjjjj",
"jjjjjjjjjjjjjjjjjjjjjjjjjjjjjjjjjjjjjjjjjjjjjjjjjjjjjjjjjjjjjjjjjjjjjjjjjjjjjjjjjjjjjjjjjjjjjjjjjjjjjjjjjjjjjjjjjjjjjjjjjjjjjjjj",
"jjjjjjjjjjjjjjjjjjjjjjjjjjjjjjjjjjjjjjjjjjjjjjjjjjjjjjjjjjjjjjjjjjjjjjjjjjjjjjjjjjjjjjjjjjjjjjjjjjjjjjjjjjjjjjjjjjjjjjjjjjjjjjjj",
"jjjjjjjjjjjjjjjjjjjjjjjjjjjjjjjjjjjjjjjjjjjjjjjjjjjjjjjjjjjjjjjjjjjjjjjjjjjjjjjjjjjjjjjjjjjjjjjjjjjjjjjjjjjjjjjjjjjjjjjjjjjjjjjj",
"jjjjjjjjjjjjjjjjjjjjjjjjjjjjjjjjjjjjjjjjjjjjjjjjjjjjjjjjjjjjjjjjjjjjjjjjjjjjjjjjjjjjjjjjjjjjjjjjjjjjjjjjjjjjjjjjjjjjjjjjjjjjjjjj",
"jjjjjjjjjjjjjjjjjjjjjjjjjjjjjjjjjjjjjjjjjjjjjjjjjjjjjjjjjjjjjjjjjjjjjjjjjjjjjjjjjjjjjjjjjjjjjjjjjjjjjjjjjjjjjjjjjjjjjjjjjjjjjjjj",
"jjjjjjjjjjjjjjjjjjjjjjjjjjjjjjjjjjjjjjjjjjjjjjjjjjjjjjjjjjjjjjjjjjjjjjjjjjjjjjjjjjjjjjjjjjjjjjjjjjjjjjjjjjjjjjjjjjjjjjjjjjjjjjjj",
"jjjjjjjjjjjjjjjjjjjjjjjjjjjjjjjjjjjjjjjjjjjjjjjjjjjjjjjjjjjjjjjjjjjjjjjjjjjjjjjjjjjjjjjjjjjjjjjjjjjjjjjjjjjjjjjjjjjjjjjjjjjjjjjj",
"jjjjjjjjjjjjjjjjjjjjjjjjjjjjjjjjjjjjjjjjjjjjjjjjjjjjjjjjjjjjjjjjjjjjjjjjjjjjjjjjjjjjjjjjjjjjjjjjjjjjjjjjjjjjjjjjjjjjjjjjjjjjjjjj"
};
