/* XPM */
static char *_0285_59eef77203ccf13d579cbe57e78078952fd02b5c4a10eb6e1d560c40affda0ba[] = {
/* columns rows colors chars-per-pixel */
"16 16 55 1 ",
"  c #A93D12",
". c #AA3F15",
"X c #AB4116",
"o c #AB4118",
"O c #AC441A",
"+ c #AD461E",
"@ c #AE471F",
"# c #AF4A23",
"$ c #B2502A",
"% c #B4522D",
"& c #B55935",
"* c #B75B37",
"= c #B85C38",
"- c #B85E3B",
"; c #BB6645",
": c #BC6645",
"> c #BD6A48",
", c #BF6F50",
"< c #C17253",
"1 c #C27557",
"2 c #C3785A",
"3 c #C3795B",
"4 c #C78064",
"5 c #C98369",
"6 c #C9866C",
"7 c #CA886D",
"8 c #CA886E",
"9 c #CB8B72",
"0 c #CC8A71",
"q c #CD8E76",
"w c #D0957E",
"e c #D29983",
"r c #D49F8A",
"t c #D6A28D",
"y c #D9A996",
"u c #DBAF9D",
"i c #DDB3A2",
"p c #DEB3A2",
"a c #DDB4A3",
"s c #E0B9AA",
"d c #E1BCAD",
"f c #E1BCAE",
"g c #E2BDB0",
"h c #E2BEB1",
"j c #E3C0B2",
"k c #E3C0B3",
"l c #E4C1B4",
"z c #E4C2B5",
"x c #E5C4B7",
"c c #E7C9BD",
"v c #E8CBBF",
"b c #E8CCC0",
"n c #EED9D1",
"m c #F2E3DD",
"M c None",
/* pixels */
"MMMMMMMMMMMMMMMM",
"MMMMMMMMMMMMMMMM",
"MMMMMMMMMMMMMMMM",
"MMMMMMMMMMMMMMMM",
"MMMjfMMMMMMcsMMM",
"Mg 24o0MMM+>7@3M",
"MXMMMM*6MOzMMMwb",
"trMMMMM#c;MMMMMM",
"euMMMMhv$MMMMMMM",
"x&MMMM<p0:MMMMnm",
"M1-dk,=MM3%al5.M",
"MMzq9iMMMMcw8yMM",
"MMMMMMMMMMMMMMMM",
"MMMMMMMMMMMMMMMM",
"MMMMMMMMMMMMMMMM",
"MMMMMMMMMMMMMMMM"
};
