/* XPM */
static char *_f4b1bc137ca412ffb5f643c8d50f2e1[] = {
/* columns rows colors chars-per-pixel */
"64 64 192 2 ",
"   c #B65A35",
".  c #B85E3A",
"X  c #BA6240",
"o  c #BA6340",
"O  c #BA6341",
"+  c #BB6442",
"@  c #BB6443",
"#  c #BB6543",
"$  c #BB6544",
"%  c #BB6644",
"&  c #BC6644",
"*  c #BC6645",
"=  c #BC6745",
"-  c #BC6746",
";  c #BC6846",
":  c #BC6847",
">  c #BD6847",
",  c #BD6948",
"<  c #BD6949",
"1  c #BD6A49",
"2  c #BD6A4A",
"3  c #BE6A4A",
"4  c #BE6B4A",
"5  c #BE6B4B",
"6  c #BE6C4B",
"7  c #BE6C4C",
"8  c #BF6C4C",
"9  c #BF6C4D",
"0  c #BF6D4D",
"q  c #BF6D4E",
"w  c #BF6E4E",
"e  c #BF6E4F",
"r  c #BF6F4F",
"t  c #C06F4F",
"y  c #C06F50",
"u  c #C07050",
"i  c #C07051",
"p  c #C07152",
"a  c #C17152",
"s  c #C17153",
"d  c #C17253",
"f  c #C17254",
"g  c #C17354",
"h  c #C17355",
"j  c #C27355",
"k  c #C27455",
"l  c #C27456",
"z  c #C27556",
"x  c #C27557",
"c  c #C37557",
"v  c #C37657",
"b  c #C27558",
"n  c #C37658",
"m  c #C37759",
"M  c #C4785B",
"N  c #C4795C",
"B  c #C47A5D",
"V  c #C57A5D",
"C  c #C57B5E",
"Z  c #C57B5F",
"A  c #C57C5F",
"S  c #C67D61",
"D  c #C67E62",
"F  c #C67F63",
"G  c #C77F64",
"H  c #C78064",
"J  c #C78166",
"K  c #C98368",
"L  c #C98469",
"P  c #C9846A",
"I  c #C9856B",
"U  c #CA866B",
"Y  c #CA866C",
"T  c #CA876D",
"R  c #CB886E",
"E  c #CB896F",
"W  c #CB8A70",
"Q  c #CC8A71",
"!  c #CC8B71",
"~  c #CC8B72",
"^  c #CC8C73",
"/  c #CD8C73",
"(  c #CD8D74",
")  c #CD8E75",
"_  c #CD8E76",
"`  c #CE9077",
"'  c #CE9078",
"]  c #CF9179",
"[  c #CF927A",
"{  c #CF937B",
"}  c #CF937C",
"|  c #D0937C",
" . c #D0947C",
".. c #D0947D",
"X. c #D0957D",
"o. c #D0957F",
"O. c #D0967F",
"+. c #D19680",
"@. c #D19780",
"#. c #D19781",
"$. c #D19882",
"%. c #D29882",
"&. c #D29983",
"*. c #D29A84",
"=. c #D39A84",
"-. c #D39B86",
";. c #D39C87",
":. c #D49D87",
">. c #D49E89",
",. c #D59E8A",
"<. c #D49F8A",
"1. c #D59F8A",
"2. c #D5A08C",
"3. c #D5A18C",
"4. c #D5A18D",
"5. c #D7A592",
"6. c #D7A693",
"7. c #D8A794",
"8. c #D8A895",
"9. c #D9A895",
"0. c #D9A896",
"q. c #D9A996",
"w. c #D9AA98",
"e. c #DAAA98",
"r. c #DAAB99",
"t. c #DAAC99",
"y. c #DAAD9B",
"u. c #DBAD9B",
"i. c #DCB09F",
"p. c #DCB19F",
"a. c #DCB1A0",
"s. c #DDB3A2",
"d. c #DEB4A4",
"f. c #DEB5A5",
"g. c #DFB6A6",
"h. c #DFB7A7",
"j. c #DFB7A8",
"k. c #DFB8A8",
"l. c #E0B8A8",
"z. c #E0B8A9",
"x. c #E0B9AA",
"c. c #E0BAAB",
"v. c #E1BBAC",
"b. c #E1BCAD",
"n. c #E1BDAE",
"m. c #E2BDAE",
"M. c #E2BDAF",
"N. c #E2BEB0",
"B. c #E2BFB1",
"V. c #E3BFB1",
"C. c #E3BFB2",
"Z. c #E3C0B3",
"A. c #E3C1B3",
"S. c #E4C2B5",
"D. c #E5C5B8",
"F. c #E6C6BA",
"G. c #E6C7BB",
"H. c #E7CABE",
"J. c #E8CABF",
"K. c #E8CCC0",
"L. c #E9CDC2",
"P. c #E9CEC3",
"I. c #E9CEC4",
"U. c #EAD0C5",
"Y. c #EAD0C6",
"T. c #EBD0C6",
"R. c #EAD0C7",
"E. c #EAD1C7",
"W. c #EBD1C7",
"Q. c #EBD2C8",
"!. c #EBD2C9",
"~. c #EBD3CA",
"^. c #ECD4CB",
"/. c #ECD5CB",
"(. c #ECD5CC",
"). c #EDD7CE",
"_. c #EED8CF",
"`. c #EED8D0",
"'. c #EED9D0",
"]. c #EED9D1",
"[. c #EFDBD3",
"{. c #EFDCD4",
"}. c #EFDCD5",
"|. c #F0DED6",
" X c #F0DED7",
".X c #F1DFD8",
"XX c #F1E0D9",
"oX c #F1E0DA",
"OX c #F1E1DA",
"+X c #F2E1DB",
"@X c #F3E3DE",
"#X c None",
/* pixels */
"#X#X#X#X#X#X#X#X#X#X#X#X#X#X#X#X#X#X#X#X#X#X#X#X#X#X#X#X#X#X#X#X#X#X#X#X#X#X#X#X#X#X#X#X#X#X#X#X#X#X#X#X#X#X#X#X#X#X#X#X#X#X#X#X",
"#X#X#X#X#X#X#X#X#X#X#X#X#X#X#X#X#X#X#X#X#X#X#X#X#X#X#X#X#X#X#X#X#X#X#X#X#X#X#X#X#X#X#X#X#X#X#X#X#X#X#X#X#X#X#X#X#X#X#X#X#X#X#X#X",
"#X#X#X#X#X#X#X#X#X#X#X#X#X#X#X#X#X#X#X#X#X#X#X#X#X#X#X#X#X#X#X#X#X#X#X#X#X#X#X#X#X#X#X#X#X#X#X#X#X#X#X#X#X#X#X#X#X#X#X#X#X#X#X#X",
"#X#X#X#X#X#X#X#X#X#X#X#X#X#X#X#X#X#X#X#X#X#X#X#X#X#X#X#X#X#X#X#X#X#X#X#X#X#X#X#X#X#X#X#X#X#X#X#X#X#X#X#X#X#X#X#X#X#X#X#X#X#X#X#X",
"#X#X#X#X#X#X#X#X#X#X#X#X#X#X#X#X#X#X#X#X#X#X#X#X#X#X#X#X#X#X#X#X#X#X#X#X#X#X#X#X#X#X#X#X#X#X#X#X#X#X#X#X#X#X#X#X#X#X#X#X#X#X#X#X",
"#X#X#X#X#X#X#X#X#X#X#X#X#X#X#X#X#X#X#X#X#X#X#X#X#X#X#X#X#X#X#X#X#X#X#X#X#X#X#X#X#X#X#X#X#X#X#X#X#X#X#X#X#X#X#X#X#X#X#X#X#X#X#X#X",
"#X#X#X#X#X#X#X#X#X#X#X#X#X#X#X#X#X#X#X#X#X#X#X#X#X#X#X#X#X#X#X#X#X#X#X#X#X#X#X#X#X#X#X#X#X#X#X#X#X#X#X#X#X#X#X#X#X#X#X#X#X#X#X#X",
"#X#X#X#X#X#X#X#X#X#X#X#X#X#X#X#X#X#X#X#X#X#X#X#X#X#X#X#X#X#X#X#X#X#X#X#X#X#X#X#X#X#X#X#X#X#X#X#X#X#X#X#X#X#X#X#X#X#X#X#X#X#X#X#X",
"#X#X#X#X#X#X#X#X#X#X#X#X#X#X#X#X#X#X#X#X#X#X#X#X#X#X#X#X#X#X#X#X#X#X#X#X#X#X#X#X#X#X#X#X#X#X#X#X#X#X#X#X#X#X#X#X#X#X#X#X#X#X#X#X",
"#X#X#X#X#X#X#X#X#X#X#X#X#X#X#X#X#X#X#X#X#X#X#X#X#X#X#X#X#X#X#X#X#X#X#X#X#X#X#X#X#X#X#X#X#X#X#X#X#X#X#X#X#X#X#X#X#X#X#X#X#X#X#X#X",
"#X#X#X#X#X#X#X#X#X#X#X#X#X#X#X#X#X#X#X#X#X#X#X#X#X#X#X#X#X#X#X#X#X#X#X#X#X#X#X#X#X#X#X#X#X#X#X#X#X#X#X#X#X#X#X#X#X#X#X#X#X#X#X#X",
"#X#X#X#X#X#X#X#X#X#X#X#X#X#X#X#X#X#X#X#X#X#X#X#X#X#X#X#X#X#X#X#X#X#X#X#X#X#X#X#X#X#X#X#X#X#X#X#X#X#X#X#X#X#X#X#X#X#X#X#X#X#X#X#X",
"#X#X#X#X#X#X#X#X#X#X#X#X#X#X#X#X#X#X#X#X#X#X#X#X#X#X#X#X#X#X#X#X#X#X#X#X#X#X#X#X#X#X#X#X#X#X#X#X#X#X#X#X#X#X#X#X#X#X#X#X#X#X#X#X",
"#X#X#X#X#X#X#X#X#X#X#X#X#X#X#X#X#X#X#X#X#X#X#X#X#X#X#X#X#X#X#X#X#X#X#X#X#X#X#X#X#X#X#X#X#X#X#X#X#X#X#X#X#X#X#X#X#X#X#X#X#X#X#X#X",
"#X#X#X#X#X#X#X#X#X#X#X#X#X#X#X#X#X#X#X#X#X#X#X#X#X#X#X#X#X#X#X#X#X#X#X#X#X#X#X#X#X#X#X#X#X#X#X#X#X#X#X#X#X#X#X#X#X#X#X#X#X#X#X#X",
"#X#X#X#X#X#X#X#X#X#X#X#X(.i.$.W L [ 2.m.|.#X#X#X#X#X#X#X#X#X#X#X#X#X#X#X#X#X#X#X#X#X#X#X#XI.e.+.W ! +.e.H.#X#X#X#X#X#X#X#X#X#X#X",
"#X#X#X#X#X#X#X#X#X#X>.* 5 w i h i i t t * * ;.#X#X#X#X#X#X#X#X#X#X#X#X#X#X#X#X#X#X#X].Q O 5 y y i h i w w O L (.#X#X#X#X#X#X#X#X",
"#X#X#X#X#X#X#X#X*.O y k n n n n m m m c m k i O >.#X#X#X#X#X#X#X#X#X#X#X#X#X#X#X#XH * i k n n m m n n n n n h % B #X#X#X#X#X#X#X",
"#X#X#X#X#X#X#X5 w n n n n k n n m k m m m c m k t 5 #X#X#X#X#X#X#X#X#X#X#X#X#XG.O i c m m m k m n n n n n n n n h O j.#X#X#X#X#X",
"#X#X#X#X#X{.O k n n n n h w 5 % * 5 5 y h m m m m h O I.#X#X#X#X#X#X#X#X#X#Xt.+ m m c m n i w 5 > * > w i k n n m k * >.#X#X#X#X",
"#X#X#X#X#XO k n n n h > B h..X#X#X#XQ.$.* y k m m c k O D.#X#X#X#X#X#X#X#Xj.* m c m m i * Q D.#X#X#X#XD.[ # y n m c k 5 q.#X#X#X",
"#X#X#X#X5 k n n n w h [.#X#X#X#X#X#X#X#X#X=.* k c m m n O T.#X#X#X#X#X#X+XO k m m k 5 E #X#X#X#X#X#X#X#X#X#X[ 5 k m m n @ R.#X#X",
"#X#X#X+.t n n n 6 [ #X#X#X#X#X#X#X#X#X#X#X#X.X5 i m m c k O #X#X#X#X#X#Xt i m m k @ z.#X#X#X#X#X#X#X#X#X#X#X#XD.O y i i i O #X#X",
"#X#X#X# k n n w } #X#X#X#X#X#X#X#X#X#X#X#X#X#X#XB y c m m h 5 #X#X#X#Xh.5 m m k > Z.#X#X#X#X#X#X#X#X#X#X#X#X#X#X]./ [  . .Q +X#X",
"#X#XX.i m c h k #X#X#X#X#X#X#X#X#X#X#X#X#X#X#X#X#XB i m n n i L #X#X#X5 k m m t $.#X#X#X#X#X#X#X#X#X#X#X#X#X#X#X#X#X#X#X#X#X#X#X",
"#X#X% k c m * +X#X#X#X#X#X#X#X#X#X#X#X#X#X#X#X#X#X#Xi h n n n 5 m.#X(.* m m n * #X#X#X#X#X#X#X#X#X#X#X#X#X#X#X#X#X#X#X#X#X#X#X#X",
"#XI.5 n m h D #X#X#X#X#X#X#X#X#X#X#X#X#X#X#X#X#X#X#X#X* k n n k @ #X#Xk h n y 0.#X#X#X#X#X#X#X#X#X#X#X#X#X#X#X#X#X#X#X#X#X#X#X#X",
"#Xe.w n k w m.#X#X#X#X#X#X#X#X#X#X#X#X#X#X#X#X#X#X#X#XP.> n n n i E #X|.% k > @X#X#X#X#X#X#X#X#X#X#X#X#X#X#X#X#X#X#X#X#X#X#X#X#X",
"#X[ i m m 5 +X#X#X#X#X#X#X#X#X#X#X#X#X#X#X#X#X#X#X#X#X#X/ i n n n * R.#X[ y % #X#X#X#X#X#X#X#X#X#X#X#X#X#X#X#X#X#X#X#X#X#X#X#X#X",
"#XP i m m * #X#X#X#X#X#X#X#X#X#X#X#X#X#X#X#X#X#X#X#XC.#X#X> n m n k y #X#X> h #X#X#X#X#X#X#X#X#X#X#X#X#X#X#X#X#X#X#X#X#X#X#X#X#X",
"#XH h m c * #X#X#X#X#X#X#X#X#X#X#X#X#X#X#X#X#X#X#X#Xt.f.#XV.5 k n n w 5.#X].O #X#X#X#X#X#X#X#X#X#X#X#X#X#X#X#X#X#X#X#X#X#X#X#X#X",
"#X/ i m m * #X#X#X#X#X#X#X#X#X#X#X#X#X#X#X#X#X#X#X#Xq.. #X#Xm h n n k # #X#X0.#X#X#X#X#X#X#X#X#X#X#X#X#X#X#X#X#X#X#X#X#X#X#X#X#X",
"#X2.y n n 5 I.#X#X#X#X#X#X#X#X#X#X#X#X#X#X#X#X#X#X#XY w Y #X#X# n n n k w #X#X#X#X#X#X#X#X#X#X#X#X#X#X#X#X#X#X#X#X#X#X#X#X#X#X#X",
"#XA.5 n n i $.#X#X#X#X#X#X#X#X#X#X#X#X#X#X#X#X#X#X#X% n > J.#Xt.5 n n n y E #X#X#X#X#X#X#X#X#X#X#X#X#X#X#X#X#X#X#X#X#X#X#X#X#X#X",
"#X#X# k n n % #X#X#X#X#X#X#X#X#X#X#X#X#X#X#X#X#X#Xm.w n k % #X#XB h n n n 5 5.#X#X#X#X#X#X#X#X#X#X#X#X#X#X#X#X#X#X#X#X#X#X#X#X#X",
"#X#XD h n n y *.#X#X#X#X#X#X#X#X#X#X#X#X#X#X#X#X#X5 k m k > #X#X#X% k n n k * z.#X#X#X#X#X#X#X#X#X#X#X#X#X#X#X#X#X#X#X#X#X#X#X#X",
"#X#XP.5 k n n % R.#X#X#X#X#X#X#X#X#X#X#X#X#X#X#XE p n n n % #X#X#X].O n n m k * a.#X#X#X#X#X#X#X#X#X#X#X#X#X#X#X#Xm.V.V.C.z.#X#X",
"#X#X#Xh h n n n * {.#X#X#X#X#X#X#X#X#X#X#X#X#XX.5 n n n 5 f.#X#X#X#Xc.% k m n n * $.#X#X#X#X#X#X#X#X#X#X#X#X#X#Xw 5 5 w w   #X#X",
"#X#X#X#XO n n n k # a.#X#X#X#X#X#X#X#X#X#X#XD w n n n h k #X#X#X#X#X#X0.> n n n m t k #X#X#X#X#X#X#X#X#X#X#XI.* h n n n 5 q.#X#X",
"#X#X#X#Xf.* n n n k w k D.#X#X#X#X#X#X#X2.* i n n n k O #X#X#X#X#X#X#X#X2.% n n m m h % / ].#X#X#X#X#X#XP.G 5 h n n n t D #X#X#X",
"#X#X#X#X#X>.5 k n n n k w * i / X.Y 5 * i k m m n k O .X#X#X#X#X#X#X#X#X#Xa.# k n n n k i 5 * k L L n * 5 h c m n n y k #X#X#X#X",
"#X#X#X#X#X#Xe.O h n n n n k k h i h k c m m c c i > #X#X#X#X#X#X#X#X#X#X#X#XT.O h n n n n n k k i h k k c c m m k 5 H #X#X#X#X#X",
"#X#X#X#X#X#X#X].5 5 k n n n n n m m c m m c h * P #X#X#X#X#X#X#X#X#X#X#X#X#X#X#XH > h k n n n n n n n n m c k i O i.#X#X#X#X#X#X",
"#X#X#X#X#X#X#X#X#Xp.5 5 y h k n m c k h t @ A /.#X#X#X#X#X#X#X#X#X#X#X#X#X#X#X#X#XR.B * w i k n n n n k i w O $.#X#X#X#X#X#X#X#X",
"#X#X#X#X#X#X#X#X#X#X#XR.:.n # * * * 5 P u.#X#X#X#X#X#X#X#X#X#X#X#X#X#X#X#X#X#X#X#X#X#X#Xz.} i % * > # p } Z.#X#X#X#X#X#X#X#X#X#X",
"#X#X#X#X#X#X#X#X#X#X#X#X#X#X#X#X#X#X#X#X#X#X#X#X#X#X#X#X#X#X#X#X#X#X#X#X#X#X#X#X#X#X#X#X#X#X#X#X#X#X#X#X#X#X#X#X#X#X#X#X#X#X#X#X",
"#X#X#X#X#X#X#X#X#X#X#X#X#X#X#X#X#X#X#X#X#X#X#X#X#X#X#X#X#X#X#X#X#X#X#X#X#X#X#X#X#X#X#X#X#X#X#X#X#X#X#X#X#X#X#X#X#X#X#X#X#X#X#X#X",
"#X#X#X#X#X#X#X#X#X#X#X#X#X#X#X#X#X#X#X#X#X#X#X#X#X#X#X#X#X#X#X#X#X#X#X#X#X#X#X#X#X#X#X#X#X#X#X#X#X#X#X#X#X#X#X#X#X#X#X#X#X#X#X#X",
"#X#X#X#X#X#X#X#X#X#X#X#X#X#X#X#X#X#X#X#X#X#X#X#X#X#X#X#X#X#X#X#X#X#X#X#X#X#X#X#X#X#X#X#X#X#X#X#X#X#X#X#X#X#X#X#X#X#X#X#X#X#X#X#X",
"#X#X#X#X#X#X#X#X#X#X#X#X#X#X#X#X#X#X#X#X#X#X#X#X#X#X#X#X#X#X#X#X#X#X#X#X#X#X#X#X#X#X#X#X#X#X#X#X#X#X#X#X#X#X#X#X#X#X#X#X#X#X#X#X",
"#X#X#X#X#X#X#X#X#X#X#X#X#X#X#X#X#X#X#X#X#X#X#X#X#X#X#X#X#X#X#X#X#X#X#X#X#X#X#X#X#X#X#X#X#X#X#X#X#X#X#X#X#X#X#X#X#X#X#X#X#X#X#X#X",
"#X#X#X#X#X#X#X#X#X#X#X#X#X#X#X#X#X#X#X#X#X#X#X#X#X#X#X#X#X#X#X#X#X#X#X#X#X#X#X#X#X#X#X#X#X#X#X#X#X#X#X#X#X#X#X#X#X#X#X#X#X#X#X#X",
"#X#X#X#X#X#X#X#X#X#X#X#X#X#X#X#X#X#X#X#X#X#X#X#X#X#X#X#X#X#X#X#X#X#X#X#X#X#X#X#X#X#X#X#X#X#X#X#X#X#X#X#X#X#X#X#X#X#X#X#X#X#X#X#X",
"#X#X#X#X#X#X#X#X#X#X#X#X#X#X#X#X#X#X#X#X#X#X#X#X#X#X#X#X#X#X#X#X#X#X#X#X#X#X#X#X#X#X#X#X#X#X#X#X#X#X#X#X#X#X#X#X#X#X#X#X#X#X#X#X",
"#X#X#X#X#X#X#X#X#X#X#X#X#X#X#X#X#X#X#X#X#X#X#X#X#X#X#X#X#X#X#X#X#X#X#X#X#X#X#X#X#X#X#X#X#X#X#X#X#X#X#X#X#X#X#X#X#X#X#X#X#X#X#X#X",
"#X#X#X#X#X#X#X#X#X#X#X#X#X#X#X#X#X#X#X#X#X#X#X#X#X#X#X#X#X#X#X#X#X#X#X#X#X#X#X#X#X#X#X#X#X#X#X#X#X#X#X#X#X#X#X#X#X#X#X#X#X#X#X#X",
"#X#X#X#X#X#X#X#X#X#X#X#X#X#X#X#X#X#X#X#X#X#X#X#X#X#X#X#X#X#X#X#X#X#X#X#X#X#X#X#X#X#X#X#X#X#X#X#X#X#X#X#X#X#X#X#X#X#X#X#X#X#X#X#X",
"#X#X#X#X#X#X#X#X#X#X#X#X#X#X#X#X#X#X#X#X#X#X#X#X#X#X#X#X#X#X#X#X#X#X#X#X#X#X#X#X#X#X#X#X#X#X#X#X#X#X#X#X#X#X#X#X#X#X#X#X#X#X#X#X",
"#X#X#X#X#X#X#X#X#X#X#X#X#X#X#X#X#X#X#X#X#X#X#X#X#X#X#X#X#X#X#X#X#X#X#X#X#X#X#X#X#X#X#X#X#X#X#X#X#X#X#X#X#X#X#X#X#X#X#X#X#X#X#X#X",
"#X#X#X#X#X#X#X#X#X#X#X#X#X#X#X#X#X#X#X#X#X#X#X#X#X#X#X#X#X#X#X#X#X#X#X#X#X#X#X#X#X#X#X#X#X#X#X#X#X#X#X#X#X#X#X#X#X#X#X#X#X#X#X#X",
"#X#X#X#X#X#X#X#X#X#X#X#X#X#X#X#X#X#X#X#X#X#X#X#X#X#X#X#X#X#X#X#X#X#X#X#X#X#X#X#X#X#X#X#X#X#X#X#X#X#X#X#X#X#X#X#X#X#X#X#X#X#X#X#X",
"#X#X#X#X#X#X#X#X#X#X#X#X#X#X#X#X#X#X#X#X#X#X#X#X#X#X#X#X#X#X#X#X#X#X#X#X#X#X#X#X#X#X#X#X#X#X#X#X#X#X#X#X#X#X#X#X#X#X#X#X#X#X#X#X",
"#X#X#X#X#X#X#X#X#X#X#X#X#X#X#X#X#X#X#X#X#X#X#X#X#X#X#X#X#X#X#X#X#X#X#X#X#X#X#X#X#X#X#X#X#X#X#X#X#X#X#X#X#X#X#X#X#X#X#X#X#X#X#X#X",
"#X#X#X#X#X#X#X#X#X#X#X#X#X#X#X#X#X#X#X#X#X#X#X#X#X#X#X#X#X#X#X#X#X#X#X#X#X#X#X#X#X#X#X#X#X#X#X#X#X#X#X#X#X#X#X#X#X#X#X#X#X#X#X#X"
};
