/* XPM */
static char *_c8cd34d549347d1c9e78ae163d6f332[] = {
/* columns rows colors chars-per-pixel */
"32 32 110 2 ",
"   c #B9613E",
".  c #BA613F",
"X  c #BA6240",
"o  c #BA6340",
"O  c #BA6341",
"+  c #BB6341",
"@  c #BB6442",
"#  c #BB6443",
"$  c #BB6543",
"%  c #BB6544",
"&  c #BB6644",
"*  c #BC6644",
"=  c #BC6645",
"-  c #BC6745",
";  c #BC6746",
":  c #BC6846",
">  c #BD6847",
",  c #BD6848",
"<  c #BD6948",
"1  c #BD6949",
"2  c #BD6A49",
"3  c #BE6A4A",
"4  c #BE6B4A",
"5  c #BE6B4B",
"6  c #BE6C4B",
"7  c #BE6C4C",
"8  c #BF6C4C",
"9  c #BF6D4D",
"0  c #BF6D4E",
"q  c #BF6E4E",
"w  c #BF6E4F",
"e  c #C06F50",
"r  c #C07050",
"t  c #C07051",
"y  c #C07152",
"u  c #C17152",
"i  c #C17253",
"p  c #C17254",
"a  c #C17354",
"s  c #C17355",
"d  c #C27456",
"f  c #C37659",
"g  c #C4795C",
"h  c #C47A5D",
"j  c #C57B5E",
"k  c #C57C60",
"l  c #C67D61",
"z  c #C67E62",
"x  c #C77F63",
"c  c #C78065",
"v  c #C88267",
"b  c #C88368",
"n  c #C98469",
"m  c #C9856B",
"M  c #CB886F",
"N  c #CB8A71",
"B  c #CC8A71",
"V  c #CC8B71",
"C  c #CD8C74",
"Z  c #CD8D75",
"A  c #CF937B",
"S  c #D0957E",
"D  c #D19881",
"F  c #D29882",
"G  c #D39A84",
"H  c #D39C87",
"J  c #D49E89",
"K  c #D6A28E",
"L  c #D6A38F",
"P  c #D9A895",
"I  c #D9A996",
"U  c #D9A997",
"Y  c #DCB1A0",
"T  c #DDB3A2",
"R  c #DDB3A3",
"E  c #DEB4A3",
"W  c #DEB5A5",
"Q  c #DEB6A6",
"!  c #DFB7A7",
"~  c #DFB8A8",
"^  c #E0B9AA",
"/  c #E0BAAB",
"(  c #E1BCAD",
")  c #E1BDAE",
"_  c #E2BCAE",
"`  c #E2BEB0",
"'  c #E3C1B3",
"]  c #E4C2B4",
"[  c #E4C2B5",
"{  c #E5C4B7",
"}  c #E6C6BA",
"|  c #E7C9BD",
" . c #E8CBC0",
".. c #E9CDC2",
"X. c #E9CEC3",
"o. c #E9CFC4",
"O. c #EACFC5",
"+. c #ECD3CA",
"@. c #EDD6CD",
"#. c #EDD7CE",
"$. c #EDD7CF",
"%. c #EDD8CF",
"&. c #EED9D1",
"*. c #EFDCD4",
"=. c #F0DDD6",
"-. c #F0DED7",
";. c #F2E1DB",
":. c #F2E2DB",
">. c #F2E3DD",
",. c None",
/* pixels */
",.,.,.,.,.,.,.,.,.,.,.,.,.,.,.,.,.,.,.,.,.,.,.,.,.,.,.,.,.,.,.,.",
",.,.,.,.,.,.,.,.,.,.,.,.,.,.,.,.,.,.,.,.,.,.,.,.,.,.,.,.,.,.,.,.",
",.,.,.,.,.,.,.,.,.,.,.,.,.,.,.,.,.,.,.,.,.,.,.,.,.,.,.,.,.,.,.,.",
",.,.,.,.,.,.,.,.,.,.,.,.,.,.,.,.,.,.,.,.,.,.,.,.,.,.,.,.,.,.,.,.",
",.,.,.,.,.,.,.,.,.,.,.,.,.,.,.,.,.,.,.,.,.,.,.,.,.,.,.,.,.,.,.,.",
",.,.,.,.,.,.,.,.,.,.,.,.,.,.,.,.,.,.,.,.,.,.,.,.,.,.,.,.,.,.,.,.",
",.,.,.,.,.,.,.,.,.,.,.,.,.,.,.,.,.,.,.,.,.,.,.,.,.,.,.,.,.,.,.,.",
",.,.,.,.,.,.,.,.,.,.,.,.,.,.,.,.,.,.,.,.,.,.,.,.,.,.,.,.,.,.,.,.",
",.,.,.,.,.` V s i v K >.,.,.,.,.,.,.,.,.,.&.J g i g G @.,.,.,.,.",
",.,.,.o.- 6 7 7 5 5 e X C ,.,.,.,.,.,.,.x > 7 7 5 6 7 % g ,.,.,.",
",.,._ X i @ A _ ' K > i e 7 ,.,.,.,.,.- y 5 g E [ T x 5 i @ ,.,.",
",.,.. i f ,.,.,.,.,.,.S > i 7 ,.,.,.s i % } ,.,.,.,.,.o.. % . ,.",
",.x i 7 ,.,.,.,.,.,.,.,.T - i x ,._ 5 > X.,.,.,.,.,.,.,.,.,.,.,.",
",.@ 7 } ,.,.,.,.,.,.,.,.,.L 5 5 / { % c ,.,.,.,.,.,.,.,.,.,.,.,.",
"@.5 - ,.,.,.,.,.,.,.,.,.,.,.g s @ ,.d E ,.,.,.,.,.,.,.,.,.,.,.,.",
"X.5 - ,.,.,.,.,.,.,.,.,.,.U ,.X i n ,.! ,.,.,.,.,.,.,.,.,.,.,.,.",
"*.5 5 ,.,.,.,.,.,.,.,.,.,.% @.T 6 5 ! ,.,.,.,.,.,.,.,.,.,.,.,.,.",
",.X 7 P ,.,.,.,.,.,.,.,.>.- X ,.g i @ +.,.,.,.,.,.,.,.,.,.,.,.,.",
",.J 7 - ;.,.,.,.,.,.,.,.i i 5 ,.,.5 i @  .,.,.,.,.,.,.,./ P H ,.",
",.,.> s @ / ,.,.,.,.@.i i . %.,.,.,.% i - F ,.,.,.,.,.V > % C ,.",
",.,.,.5 w 7 - b N 6 5 y . ' ,.,.,.,.,.i 5 e @ d n d - 7 > N ,.,.",
",.,.,.,.F X 7 5 5 5 % g ,.,.,.,.,.,.,.,.P @ 5 7 7 5 5 5 _ ,.,.,.",
",.,.,.,.,.,.O.~ E } ,.,.,.,.,.,.,.,.,.,.,.,.*.` E ` =.,.,.,.,.,.",
",.,.,.,.,.,.,.,.,.,.,.,.,.,.,.,.,.,.,.,.,.,.,.,.,.,.,.,.,.,.,.,.",
",.,.,.,.,.,.,.,.,.,.,.,.,.,.,.,.,.,.,.,.,.,.,.,.,.,.,.,.,.,.,.,.",
",.,.,.,.,.,.,.,.,.,.,.,.,.,.,.,.,.,.,.,.,.,.,.,.,.,.,.,.,.,.,.,.",
",.,.,.,.,.,.,.,.,.,.,.,.,.,.,.,.,.,.,.,.,.,.,.,.,.,.,.,.,.,.,.,.",
",.,.,.,.,.,.,.,.,.,.,.,.,.,.,.,.,.,.,.,.,.,.,.,.,.,.,.,.,.,.,.,.",
",.,.,.,.,.,.,.,.,.,.,.,.,.,.,.,.,.,.,.,.,.,.,.,.,.,.,.,.,.,.,.,.",
",.,.,.,.,.,.,.,.,.,.,.,.,.,.,.,.,.,.,.,.,.,.,.,.,.,.,.,.,.,.,.,.",
",.,.,.,.,.,.,.,.,.,.,.,.,.,.,.,.,.,.,.,.,.,.,.,.,.,.,.,.,.,.,.,.",
",.,.,.,.,.,.,.,.,.,.,.,.,.,.,.,.,.,.,.,.,.,.,.,.,.,.,.,.,.,.,.,."
};
